<svg width="28" height="22" viewBox="0 0 28 22" fill="none" xmlns="http://www.w3.org/2000/svg">
<path d="M24.6667 0.333328H3.33335C1.86269 0.333328 0.666687 1.52933 0.666687 2.99999V19C0.666687 20.4707 1.86269 21.6667 3.33335 21.6667H24.6667C26.1374 21.6667 27.3334 20.4707 27.3334 19V2.99999C27.3334 1.52933 26.1374 0.333328 24.6667 0.333328ZM24.6667 2.99999V3.68133L14 11.9787L3.33335 3.68266V2.99999H24.6667ZM3.33335 19V7.05866L13.1814 14.7187C13.4148 14.9021 13.7031 15.0017 14 15.0017C14.2969 15.0017 14.5852 14.9021 14.8187 14.7187L24.6667 7.05866L24.6694 19H3.33335Z" fill="#662FAE"/>
</svg>