<svg width="38" height="38" viewBox="0 0 38 38" fill="none" xmlns="http://www.w3.org/2000/svg">
<path d="M19 0C13.9808 0.0640075 9.18516 2.08627 5.63575 5.63557C2.08634 9.18486 0.0640096 13.9803 0 18.9994C0.0234629 21.9232 0.721469 24.8022 2.03967 27.4122C3.35787 30.0221 5.2607 32.2926 7.6 34.0469V34.1989H7.79C11.007 36.664 14.947 38 19 38C23.053 38 26.993 36.664 30.21 34.1989H30.4V34.0469C32.7393 32.2926 34.6421 30.0221 35.9603 27.4122C37.2785 24.8022 37.9765 21.9232 38 18.9994C37.936 13.9803 35.9137 9.18486 32.3643 5.63557C28.8148 2.08627 24.0192 0.0640075 19 0ZM11.533 32.166C11.8104 30.8957 12.5137 29.7585 13.5263 28.943C14.5388 28.1274 15.7998 27.6825 17.1 27.6821H20.9C22.2002 27.6825 23.4612 28.1274 24.4737 28.943C25.4863 29.7585 26.1896 30.8957 26.467 32.166C24.2038 33.4975 21.6258 34.1996 19 34.1996C16.3742 34.1996 13.7962 33.4975 11.533 32.166ZM29.659 29.715C28.9363 27.9879 27.7193 26.5128 26.161 25.4751C24.6026 24.4373 22.7723 23.8832 20.9 23.8822H17.1C15.2277 23.8832 13.3974 24.4373 11.839 25.4751C10.2807 26.5128 9.06371 27.9879 8.341 29.715C6.91726 28.3148 5.78341 26.6477 5.00425 24.809C4.22508 22.9704 3.81587 20.9962 3.8 18.9994C3.84928 14.9835 5.46653 11.146 8.30647 8.3062C11.1464 5.46635 14.984 3.84916 19 3.79988C23.016 3.84916 26.8536 5.46635 29.6935 8.3062C32.5335 11.146 34.1507 14.9835 34.2 18.9994C34.1841 20.9962 33.7749 22.9704 32.9958 24.809C32.2166 26.6477 31.0827 28.3148 29.659 29.715Z" fill="#1A702D"/>
<path d="M19 7.59991C17.9956 7.57651 16.9968 7.7571 16.0642 8.13074C15.1315 8.50438 14.2844 9.06331 13.5739 9.77373C12.8635 10.4841 12.3045 11.3313 11.9309 12.2639C11.5572 13.1965 11.3766 14.1953 11.4 15.1997C11.3766 16.2041 11.5572 17.2028 11.9309 18.1354C12.3045 19.068 12.8635 19.9152 13.5739 20.6256C14.2844 21.336 15.1315 21.895 16.0642 22.2686C16.9968 22.6422 17.9956 22.8228 19 22.7994C20.0045 22.8228 21.0032 22.6422 21.9359 22.2686C22.8685 21.895 23.7157 21.336 24.4262 20.6256C25.1366 19.9152 25.6955 19.068 26.0692 18.1354C26.4429 17.2028 26.6234 16.2041 26.6 15.1997C26.6234 14.1953 26.4429 13.1965 26.0692 12.2639C25.6955 11.3313 25.1366 10.4841 24.4262 9.77373C23.7157 9.06331 22.8685 8.50438 21.9359 8.13074C21.0032 7.7571 20.0045 7.57651 19 7.59991ZM19 18.9995C18.4945 19.024 17.9895 18.9424 17.5174 18.7601C17.0453 18.5778 16.6166 18.2987 16.2587 17.9409C15.9009 17.5831 15.6218 17.1543 15.4395 16.6822C15.2572 16.2101 15.1756 15.7051 15.2 15.1997C15.1756 14.6942 15.2572 14.1892 15.4395 13.7171C15.6218 13.245 15.9009 12.8163 16.2587 12.4584C16.6166 12.1006 17.0453 11.8215 17.5174 11.6392C17.9895 11.4569 18.4945 11.3754 19 11.3998C19.5055 11.3754 20.0106 11.4569 20.4827 11.6392C20.9548 11.8215 21.3835 12.1006 21.7414 12.4584C22.0992 12.8163 22.3783 13.245 22.5606 13.7171C22.7429 14.1892 22.8245 14.6942 22.8 15.1997C22.8245 15.7051 22.7429 16.2101 22.5606 16.6822C22.3783 17.1543 22.0992 17.5831 21.7414 17.9409C21.3835 18.2987 20.9548 18.5778 20.4827 18.7601C20.0106 18.9424 19.5055 19.024 19 18.9995Z" fill="#1A702D"/>
</svg>
