<svg width="26" height="26" viewBox="0 0 26 26" fill="none" xmlns="http://www.w3.org/2000/svg">
<path d="M19.6095 14.3906C19.4857 14.2667 19.3388 14.1684 19.177 14.1013C19.0153 14.0342 18.8419 13.9997 18.6668 13.9997C18.4917 13.9997 18.3183 14.0342 18.1565 14.1013C17.9948 14.1684 17.8478 14.2667 17.7241 14.3906L15.5988 16.516C14.6135 16.2226 12.7748 15.556 11.6095 14.3906C10.4441 13.2253 9.77745 11.3866 9.48412 10.4013L11.6095 8.27595C11.7334 8.15224 11.8317 8.0053 11.8988 7.84354C11.9659 7.68179 12.0004 7.5084 12.0004 7.33329C12.0004 7.15817 11.9659 6.98478 11.8988 6.82303C11.8317 6.66127 11.7334 6.51434 11.6095 6.39062L6.27612 1.05729C6.1524 0.933358 6.00546 0.835041 5.84371 0.76796C5.68196 0.700879 5.50856 0.666351 5.33345 0.666351C5.15834 0.666351 4.98495 0.700879 4.82319 0.76796C4.66144 0.835041 4.5145 0.933358 4.39079 1.05729L0.774786 4.67329C0.26812 5.17995 -0.0172139 5.87595 -0.00654721 6.58662C0.0241195 8.48529 0.526786 15.08 5.72412 20.2773C10.9215 25.4746 17.5161 25.976 19.4161 26.008H19.4535C20.1575 26.008 20.8228 25.7306 21.3268 25.2266L24.9428 21.6106C25.0667 21.4869 25.165 21.34 25.2321 21.1782C25.2992 21.0165 25.3337 20.8431 25.3337 20.668C25.3337 20.4928 25.2992 20.3194 25.2321 20.1577C25.165 19.9959 25.0667 19.849 24.9428 19.7253L19.6095 14.3906ZM19.4401 23.3399C17.7761 23.3119 12.0828 22.8653 7.60945 18.3906C3.12145 13.9026 2.68679 8.18929 2.66012 6.55862L5.33345 3.88529L8.78145 7.33329L7.05745 9.05729C6.90073 9.21389 6.78551 9.40707 6.72219 9.61938C6.65887 9.83168 6.64945 10.0564 6.69479 10.2733C6.72679 10.4266 7.50945 14.0626 9.72279 16.276C11.9361 18.4893 15.5721 19.272 15.7255 19.304C15.9422 19.3506 16.1671 19.3419 16.3796 19.2788C16.5921 19.2156 16.7853 19.1 16.9415 18.9426L18.6668 17.2186L22.1148 20.6666L19.4401 23.3399Z" fill="#662FAE"/>
</svg>