<svg width="39" height="39" viewBox="0 0 39 39" fill="none" xmlns="http://www.w3.org/2000/svg">
<path d="M30.4142 20.5859C30.2286 20.4 30.0082 20.2525 29.7656 20.1519C29.5229 20.0513 29.2628 19.9995 29.0002 19.9995C28.7375 19.9995 28.4774 20.0513 28.2348 20.1519C27.9922 20.2525 27.7718 20.4 27.5862 20.5859L24.3982 23.7739C22.9202 23.3339 20.1622 22.3339 18.4142 20.5859C16.6662 18.8379 15.6662 16.0799 15.2262 14.6019L18.4142 11.4139C18.6001 11.2283 18.7475 11.0079 18.8482 10.7653C18.9488 10.5227 19.0006 10.2626 19.0006 9.99991C19.0006 9.73725 18.9488 9.47716 18.8482 9.23453C18.7475 8.9919 18.6001 8.77149 18.4142 8.58591L10.4142 0.585914C10.2286 0.400022 10.0082 0.252547 9.76557 0.151925C9.52294 0.0513039 9.26285 -0.000488281 9.00018 -0.000488281C8.73751 -0.000488281 8.47742 0.0513039 8.23479 0.151925C7.99216 0.252547 7.77176 0.400022 7.58618 0.585914L2.16218 6.00991C1.40218 6.76991 0.974179 7.81391 0.990179 8.87991C1.03618 11.7279 1.79018 21.6199 9.58618 29.4159C17.3822 37.2119 27.2742 37.9639 30.1242 38.0119H30.1802C31.2362 38.0119 32.2342 37.5959 32.9902 36.8399L38.4142 31.4159C38.6001 31.2303 38.7475 31.0099 38.8482 30.7673C38.9488 30.5247 39.0006 30.2646 39.0006 30.0019C39.0006 29.7392 38.9488 29.4792 38.8482 29.2365C38.7475 28.9939 38.6001 28.7735 38.4142 28.5879L30.4142 20.5859ZM30.1602 34.0099C27.6642 33.9679 19.1242 33.2979 12.4142 26.5859C5.68218 19.8539 5.03018 11.2839 4.99018 8.83791L9.00018 4.82791L14.1722 9.99991L11.5862 12.5859C11.3511 12.8208 11.1783 13.1106 11.0833 13.4291C10.9883 13.7475 10.9742 14.0846 11.0422 14.4099C11.0902 14.6399 12.2642 20.0939 15.5842 23.4139C18.9042 26.7339 24.3582 27.9079 24.5882 27.9559C24.9133 28.0258 25.2507 28.0128 25.5695 27.9181C25.8882 27.8234 26.178 27.65 26.4122 27.4139L29.0002 24.8279L34.1722 29.9999L30.1602 34.0099Z" fill="#5A3090"/>
</svg>
