<svg width="32" height="40" viewBox="0 0 32 40" fill="none" xmlns="http://www.w3.org/2000/svg">
<path d="M16.0001 24C20.4121 24 24.0001 20.412 24.0001 16C24.0001 11.588 20.4121 8 16.0001 8C11.5881 8 8.00012 11.588 8.00012 16C8.00012 20.412 11.5881 24 16.0001 24ZM16.0001 12C18.2061 12 20.0001 13.794 20.0001 16C20.0001 18.206 18.2061 20 16.0001 20C13.7941 20 12.0001 18.206 12.0001 16C12.0001 13.794 13.7941 12 16.0001 12Z" fill="#5A3090"/>
<path d="M14.8402 39.628C15.1787 39.8697 15.5842 39.9997 16.0002 39.9997C16.4161 39.9997 16.8217 39.8697 17.1602 39.628C17.7682 39.198 32.0582 28.88 32.0002 16C32.0002 7.178 24.8222 0 16.0002 0C7.17818 0 0.000176075 7.178 0.000176075 15.99C-0.0578239 28.88 14.2322 39.198 14.8402 39.628ZM16.0002 4C22.6182 4 28.0002 9.382 28.0002 16.01C28.0422 24.886 19.2242 32.856 16.0002 35.47C12.7782 32.854 3.95818 24.882 4.00018 16C4.00018 9.382 9.38218 4 16.0002 4Z" fill="#5A3090"/>
</svg>
