<svg width="22" height="28" viewBox="0 0 22 28" fill="none" xmlns="http://www.w3.org/2000/svg">
<path d="M11.0001 16.6667C13.9414 16.6667 16.3334 14.2747 16.3334 11.3334C16.3334 8.39202 13.9414 6.00002 11.0001 6.00002C8.05873 6.00002 5.66673 8.39202 5.66673 11.3334C5.66673 14.2747 8.05873 16.6667 11.0001 16.6667ZM11.0001 8.66669C12.4707 8.66669 13.6667 9.86269 13.6667 11.3334C13.6667 12.804 12.4707 14 11.0001 14C9.52939 14 8.33339 12.804 8.33339 11.3334C8.33339 9.86269 9.52939 8.66669 11.0001 8.66669Z" fill="#662FAE"/>
<path d="M10.2268 27.0854C10.4524 27.2465 10.7228 27.3331 11.0001 27.3331C11.2774 27.3331 11.5478 27.2465 11.7734 27.0854C12.1788 26.7987 21.7054 19.92 21.6668 11.3334C21.6668 5.45202 16.8814 0.666687 11.0001 0.666687C5.11876 0.666687 0.33343 5.45202 0.33343 11.3267C0.294764 19.92 9.82143 26.7987 10.2268 27.0854ZM11.0001 3.33335C15.4121 3.33335 19.0001 6.92135 19.0001 11.34C19.0281 17.2574 13.1494 22.5707 11.0001 24.3134C8.8521 22.5694 2.9721 17.2547 3.0001 11.3334C3.0001 6.92135 6.5881 3.33335 11.0001 3.33335Z" fill="#662FAE"/>
</svg>