<svg width="39" height="39" viewBox="0 0 39 39" fill="none" xmlns="http://www.w3.org/2000/svg">
<path d="M19.501 0C8.74726 0.0019499 0 8.74921 0 19.501C0.0019499 30.2527 8.74921 39 19.499 39C30.2527 39 39 30.2527 39 19.501C39 8.74921 30.2527 0.0019499 19.501 0ZM19.499 35.1002C10.9 35.1002 3.90175 28.102 3.89981 19.501C3.89981 10.9 10.898 3.90175 19.501 3.89981C28.102 3.90175 35.1002 10.9 35.1002 19.501C35.1002 28.102 28.102 35.1002 19.499 35.1002Z" fill="#5A3090"/>
<path d="M19.5009 11.7151L11.6916 19.5245H17.551V27.3124H21.4508V19.5245H27.3083L19.5009 11.7151Z" fill="#5A3090"/>
</svg>
